<svg xmlns="http://www.w3.org/2000/svg" width="474.131" height="200" viewBox="0 0 474.131 200">
  <g id="Group_10" data-name="Group 10" transform="translate(-1210.869 -272)">
    <g id="Group_5" data-name="Group 5" transform="translate(1210.869 272)">
      <g id="Group_12" data-name="Group 12">
        <g id="Group_57" data-name="Group 57" transform="translate(0 50.729)">
          <path id="Fill_5" data-name="Fill 5" d="M51.961,145.26c7.914-.585,5.263-6.744,3.5-9.076s.436-5.418.436-5.418c1.314-7.619-6.734-9.221-6.734-9.221-2.341-3.374-1.316-5.861,1.027-9.225s-1.905-3.808-1.905-3.808c-7.614-13.764-7.457-52.421-7.457-52.421s7.168.149,8.048-2.779-2.635-5.855-2.635-5.855c1.606-1.028,2.934-4.544-1.023-4.544s-3.213-2.049-3.213-2.049c4.393-3.221-.3-4.836-.3-4.836-.432-13.912,6.143-17.279,6.143-17.279a1.732,1.732,0,0,0-.259-.308c-1.563-1.611-5.737-1.743-5.737-1.743-1.783-3.187-7.873-5.7-9.439-6.309a5.548,5.548,0,0,0,2.713-4.675C35.125,2.562,32.3,0,28.815,0c-3.458,0-6.286,2.562-6.286,5.712a5.58,5.58,0,0,0,2.723,4.7c-.177.062-7.747,2.817-9.78,6.432,0,0-4.166.133-5.739,1.745a2.086,2.086,0,0,0-.259.294s6.591,3.374,6.155,17.282c0,0-4.694,1.612-.3,4.827,0,0,.738,2.049-3.223,2.049s-2.633,3.52-1.015,4.538c0,0-3.513,2.924-2.642,5.861S16.5,56.218,16.5,56.218s.155,38.659-7.449,52.421c0,0-4.246.449-1.907,3.81s3.37,5.857,1.027,9.221c0,0-8.06,1.615-6.734,9.223,0,0,2.2,3.08.434,5.42-1.748,2.343-4.391,8.489,3.525,9.081,7.9.585,38.661.452,46.567-.135" transform="translate(84.856)" fill="#00324a"/>
          <path id="Fill_7" data-name="Fill 7" d="M59.1,102.612V61.567A48.838,48.838,0,0,0,10.279,12.825H0V0H10.279A61.617,61.617,0,0,1,71.948,61.567v41.045Z" transform="translate(17.775 17.349)" fill="#53bad6"/>
          <path id="Fill_9" data-name="Fill 9" d="M7.7,0H0A48.858,48.858,0,0,1,48.793,48.812V89.918H56.5V48.812A48.86,48.86,0,0,0,7.7,0" transform="translate(28.144 30.255)" fill="#03ad4f"/>
          <path id="Fill_11" data-name="Fill 11" d="M0,0A61.456,61.456,0,0,1,24.124,48.854V89.918" transform="translate(65.599 30.043)" fill="#03ad4f"/>
          <path id="Fill_13" data-name="Fill 13" d="M0,0Q1.18.609,2.328,1.269" transform="translate(56.712 24.331)" fill="#03ad4f"/>
          <path id="Fill_15" data-name="Fill 15" d="M31.742,3.826A61.9,61.9,0,0,0,10.246,0H0V5.078" transform="translate(17.987 17.349)" fill="#53bad6"/>
          <path id="Fill_17" data-name="Fill 17" d="M77.026,89.918V48.813A48.854,48.854,0,0,0,28.244,0H0L10.271,10.277V59.089H28.244V51.382A10.269,10.269,0,0,1,38.512,41.108V59.089A15.409,15.409,0,0,1,23.107,74.5V89.918Z" transform="translate(0 30.255)" fill="#03ad4f"/>
          <path id="Fill_19" data-name="Fill 19" d="M7.7,0H0A48.861,48.861,0,0,1,48.8,48.812V89.918h7.7V48.812A48.859,48.859,0,0,0,7.7,0" transform="translate(20.526 30.255)" fill="#03ad4f"/>
          <path id="Fill_21" data-name="Fill 21" d="M0,10.277v7.707H5.148V10.277A10.289,10.289,0,0,1,15.448,0H10.3A10.289,10.289,0,0,0,0,10.277" transform="translate(23.066 71.3)" fill="#03ad4f"/>
          <path id="Fill_23" data-name="Fill 23" d="M0,0,12.908,12.906V5.164Z" transform="translate(0 30.255)" fill="#03ad4f"/>
          <path id="Fill_25" data-name="Fill 25" d="M77.026,89.918V48.813A48.854,48.854,0,0,0,28.244,0H0L10.271,10.277V59.089H28.244V51.382A10.269,10.269,0,0,1,38.512,41.108V59.089A15.409,15.409,0,0,1,23.107,74.5V89.918" transform="translate(0 30.255)" fill="#53bad6"/>
          <path id="Fill_27" data-name="Fill 27" d="M0,3.808A3.809,3.809,0,1,0,3.81,0,3.809,3.809,0,0,0,0,3.808" transform="translate(19.257 52.047)" fill="#f8fbf9"/>
          <path id="Fill_29" data-name="Fill 29" d="M5.128,0A5.125,5.125,0,0,0,0,5.121V25.6H87.183V5.121A5.125,5.125,0,0,0,82.056,0Z" transform="translate(12.908 120.172)" fill="#03ad4f"/>
          <path id="Fill_31" data-name="Fill 31" d="M7.745,0H0A5.144,5.144,0,0,1,5.165,5.121V25.6h7.744V5.121A5.143,5.143,0,0,0,7.745,0" transform="translate(87.183 120.172)" fill="#03ad4f"/>
          <path id="Fill_33" data-name="Fill 33" d="M17.95,0H5.13A5.125,5.125,0,0,0,0,5.121V25.6H87.183V5.121A5.126,5.126,0,0,0,82.056,0H25.643" transform="translate(12.908 120.172)" fill="#53bad6"/>
          <path id="Fill_35" data-name="Fill 35" d="M6.658,0,0,61.356H63.906L57.248,0Z" transform="translate(43.592 60.509)" fill="#fff"/>
          <path id="Fill_37" data-name="Fill 37" d="M7.964,0H0L6.635,61.356H14.6Z" transform="translate(92.897 60.509)" fill="#b1e0ec"/>
          <path id="Stroke_39" data-name="Stroke 39" d="M63.906,61.356H0L3.435,29.69,5.5,10.674,6.658,0H57.253Z" transform="translate(43.592 60.509)" fill="none" stroke="#010101" stroke-linecap="round" stroke-linejoin="round" stroke-miterlimit="10" stroke-width="5.153"/>
          <path id="Fill_41" data-name="Fill 41" d="M5.329,0A5.322,5.322,0,0,0,0,5.313V23.908H85.279V5.313A5.321,5.321,0,0,0,79.947,0Z" transform="translate(32.8 121.865)" fill="#fff"/>
          <path id="Fill_43" data-name="Fill 43" d="M8,0H0A5.324,5.324,0,0,1,5.332,5.313V23.908h8V5.313A5.324,5.324,0,0,0,8,0" transform="translate(104.747 121.865)" fill="#b1e0ec"/>
          <path id="Stroke_45" data-name="Stroke 45" d="M5.329,0A5.322,5.322,0,0,0,0,5.313V23.908H85.279V5.313A5.321,5.321,0,0,0,79.947,0Z" transform="translate(32.8 121.865)" fill="none" stroke="#010101" stroke-linecap="round" stroke-linejoin="round" stroke-miterlimit="10" stroke-width="5.153"/>
          <path id="Fill_47" data-name="Fill 47" d="M23.952,0V10.675H13.307V0H0V29.36A5.33,5.33,0,0,0,5.323,34.7H63.874A5.33,5.33,0,0,0,69.2,29.36V0H55.889V10.675H45.242V0Z" transform="translate(40.841 25.812)" fill="#fff"/>
          <path id="Fill_49" data-name="Fill 49" d="M5.332,0V29.36A5.336,5.336,0,0,1,0,34.7H8a5.337,5.337,0,0,0,5.334-5.338V0Z" transform="translate(96.706 25.812)" fill="#b1e0ec"/>
          <path id="Fill_51" data-name="Fill 51" d="M0,0V10.663a2.673,2.673,0,0,0,2.681,2.666h5.36V0Z" transform="translate(78.084 25.812)" fill="#b1e0ec"/>
          <path id="Fill_53" data-name="Fill 53" d="M0,10.662a2.675,2.675,0,0,0,2.682,2.667h5.36V0H0Z" transform="translate(46.131 25.812)" fill="#b1e0ec"/>
          <path id="Stroke_55" data-name="Stroke 55" d="M79.895,34.655H21.306a5.334,5.334,0,0,1-5.326-5.331V0H29.3V10.662H39.947V0h21.3V10.662H71.906V0H85.221V29.325A5.334,5.334,0,0,1,79.895,34.655Z" transform="translate(24.758 25.812)" fill="none" stroke="#010101" stroke-linecap="round" stroke-linejoin="round" stroke-miterlimit="10" stroke-width="5.153"/>
        </g>
        <g id="freepik--Character--inject-62" transform="translate(120.056 9.913)">
          <path id="Path" d="M0,10.41l4.682,1.673L9.8,1.679,5.12,0,0,10.41Z" transform="translate(28.546 170.183)" fill="#ffb573"/>
          <path id="Path-2" data-name="Path" d="M7.322,1.673,4.686,7.04,0,5.361,2.642,0l4.68,1.673Z" transform="translate(31.024 170.19)" opacity="0.2"/>
          <path id="Path-3" data-name="Path" d="M8.145,1.854,3.037.029a.421.421,0,0,0-.514.177L.109,4.022A.733.733,0,0,0,.347,5.029.687.687,0,0,0,.49,5.1c1.854.633,4.56,1.477,6.877,2.3,2.705.966,3.494,2.785,6.867,2.785,2.781,0,3.062-1.449,2.248-1.755C12.753,7.016,11.611,5.685,9.146,2.6A2.318,2.318,0,0,0,8.145,1.854Z" transform="translate(25.247 179.86)" fill="#010101"/>
          <path id="Path-4" data-name="Path" d="M27.366,55.414C27.965,40.224,17.32,0,17.32,0L0,2.34C6.321,20.3,11.235,34.97,13.338,53.457,15.731,62.6,1.346,102.615,1.346,102.615l7.927,2.838S26.751,71.2,27.366,55.414Z" transform="translate(28.559 71.328)" fill="#52bad5"/>
          <path id="Path-5" data-name="Path" d="M27.366,55.414C27.965,40.224,17.32,0,17.32,0L0,2.34C6.321,20.3,11.235,34.97,13.338,53.457,15.731,62.6,1.346,102.615,1.346,102.615l7.927,2.838S26.751,71.2,27.366,55.414Z" transform="translate(28.559 71.328)" fill="#2c9ab7" opacity="0.3"/>
          <path id="Path-6" data-name="Path" d="M2.457,0,0,2.954c.259.738.476,1.477.666,2.213A207.412,207.412,0,0,1,7.539,30.535h0C7.811,21.425,8.81,5.087,2.457,0Z" transform="translate(32.395 81.712)" opacity="0.2"/>
          <path id="Path-7" data-name="Path" d="M9.444,6.437,0,3.059,1.085,0l9.56,3.258-1.2,3.18Z" transform="translate(29.334 170.875)" fill="#263238"/>
          <path id="Shape" d="M.06.325A.131.131,0,0,1,0,.194.12.12,0,0,1,.1.1C.357.076,2.58-.211,3.038.31a.387.387,0,0,1,.076.363.633.633,0,0,1-.4.464,1,1,0,0,1-.375.064A5.4,5.4,0,0,1,.06.325Z" transform="translate(33.561 182.209)" fill="#52bad5"/>
          <path id="Shape-2" data-name="Shape" d="M.048,1.757.016,1.73a.109.109,0,0,1,0-.114C.041,1.565.612.344,1.388.071a.848.848,0,0,1,.679,0,.435.435,0,0,1,.305.458C2.271,1.088.761,1.7.13,1.757a.128.128,0,0,1-.082,0Z" transform="translate(33.574 180.777)" fill="#52bad5"/>
          <path id="Path-8" data-name="Path" d="M0,11.53H4.973L5.373,0H.4L0,11.53Z" transform="translate(22.971 173.452)" fill="#ffb573"/>
          <path id="Path-9" data-name="Path" d="M7.488,0H1.422A.422.422,0,0,0,1,.336L.016,4.787a.732.732,0,0,0,.563.869.749.749,0,0,0,.169.015C2.7,5.64,4.119,5.526,6.571,5.526c1.511,0,6.07.158,8.154.158s2.358-2.068,1.515-2.251c-3.81-.844-6.713-2-7.937-3.1A1.223,1.223,0,0,0,7.488,0Z" transform="translate(20.894 184.404)" fill="#010101"/>
          <path id="Path-10" data-name="Path" d="M6.77,0l4.956,9.655c1.662,3.18,3.371,6.4,5.156,9.3l.681,1.038a3.417,3.417,0,0,0,.354.464,1.016,1.016,0,0,0,.514.363,2.687,2.687,0,0,0,1.327-.173,9.12,9.12,0,0,0,1.9-.9,26.552,26.552,0,0,0,3.968-3.011c.632-.578,1.264-1.163,1.9-1.785s1.264-1.266,1.823-1.871L32.4,15.216c-.489.9-.98,1.688-1.519,2.494s-1.091,1.6-1.686,2.365A27.344,27.344,0,0,1,25,24.444a15.84,15.84,0,0,1-2.851,1.838,8.99,8.99,0,0,1-4,.947,7.369,7.369,0,0,1-4.5-1.622,9.969,9.969,0,0,1-1.532-1.538l-.914-1.2a100.27,100.27,0,0,1-6.051-9.64C3.317,9.963,1.608,6.686,0,3.31Z" transform="translate(36.65 32.458)" fill="#ffb573"/>
          <path id="Path-11" data-name="Path" d="M.055,4.288C-.737,8.982,7.316,22.133,7.316,22.133l8.466-9.26S13.723,5.7,9.646,2.3C5.714-.978.971-1.118.055,4.288Z" transform="translate(34.397 28.603)" fill="#006799"/>
          <path id="Path-12" data-name="Path" d="M9.393,6.513C7.52,2.294,3.6-.086,0,0,1.848,5.726,6.6,13.49,6.6,13.49l3.778-4.127a19.138,19.138,0,0,0-.984-2.85Z" transform="translate(35.116 37.245)" opacity="0.2"/>
          <path id="Path-13" data-name="Path" d="M0,3.336,2.236,0,7.482,3.734S3.169,7.359.5,5.806Z" transform="translate(65.122 43.286)" fill="#ffb573"/>
          <path id="Path-14" data-name="Path" d="M6.243,0l3.911,1.538L5.247,4.363,0,.629,6.243,0Z" transform="translate(67.358 42.653)" fill="#ffb573"/>
          <path id="Path-15" data-name="Path" d="M.211,0H5.183L4.973,5.945H0L.211,0Z" transform="translate(23.16 173.452)" opacity="0.2"/>
          <path id="Path-16" data-name="Path" d="M0,3.847a111.584,111.584,0,0,1,4.214,16.14C4.933,23.8,5.447,27.458,5.841,30.8c.914,7.783,1.123,13.748,1.475,15.752l26.37-3.555C33.264,13.963,27.653.376,27.653.376A50.832,50.832,0,0,0,21.269,0c-.451,0-.908,0-1.372.032A98.6,98.6,0,0,0,8.668,1.526c-.7.135-1.416.281-2.107.439C3.068,2.783,0,3.847,0,3.847Z" transform="translate(12.212 28.352)" fill="#006799"/>
          <path id="Path-17" data-name="Path" d="M3.595,0,0,1.386C.769,4.306,1.4,7.2,1.9,10.011c.088.464.173.922.255,1.38A17.636,17.636,0,0,0,3.595,0Z" transform="translate(14.485 38.328)" opacity="0.2"/>
          <path id="Path-18" data-name="Path" d="M0,0C1.195,3.511,2.788,10.028.59,12.775a11.283,11.283,0,0,0,9.1,2.321c3.085-.483,2.95-2.677,2.107-3.785-4.153-.422-4.446-3.42-4.128-6.329Z" transform="translate(20.297 17.124)" fill="#ffb573"/>
          <path id="Path-19" data-name="Path" d="M0,.956.217,1.3,2.1.568,1.214,0,0,.956Z" transform="translate(27.587 31.644)" fill="#52bad5"/>
          <path id="Path-20" data-name="Path" d="M1.656.827,0,1.013.095.154,1.047,0l.609.827Z" transform="translate(29.684 31.199)" fill="#52bad5"/>
          <path id="Path-21" data-name="Path" d="M1.271,0A11.058,11.058,0,0,0,8.835,2.918c-1.054.633-1.214,3.258-1.214,3.258S1.9,4.91,0,1.137A7.167,7.167,0,0,1,1.271,0Z" transform="translate(19.966 28.728)" fill="#fff"/>
          <path id="Path-22" data-name="Path" d="M1.264,0A2.2,2.2,0,0,1,0,3.353c2.107.376,2.832,3.053,2.832,3.053S5,4.211,3.346.274A14.592,14.592,0,0,0,1.264,0Z" transform="translate(29.778 28)" fill="#fff"/>
          <path id="Path-23" data-name="Path" d="M.02,0,4.561,2.926a10.962,10.962,0,0,0-.076,2.036c-1.57,0-3.906-1.42-4.288-3A5.687,5.687,0,0,1,.02,0Z" transform="translate(23.402 19.135)" opacity="0.2"/>
          <path id="Path-24" data-name="Path" d="M.141,8.115c.959,4.853,1.264,7.732,4.077,9.916,4.214,3.268,9.941.224,10.449-4.815.457-4.534-1.188-11.695-6.224-13a6.747,6.747,0,0,0-8.3,7.906Z" transform="translate(18.993 3.625)" fill="#ffb573"/>
          <path id="Path-25" data-name="Path" d="M6.062,11.181A9.645,9.645,0,0,0,5.43,5.368c.548-1.011,1.816-3.485,1.5-5.087C4.847-.352.439.281.439.281S-2.334,7.537,6.062,11.181Z" transform="translate(15.498 5.475)" fill="#010101"/>
          <path id="Path-26" data-name="Path" d="M3.694,5.413C5.987,5.761,15.2,4.737,17.146.674c.7-1.477-1.728-.1-3.074.139S4.425.566,2.183.851C.831,1.03-2.669,4.425,3.694,5.413Z" transform="translate(14.97 2.093)" fill="#010101"/>
          <path id="Path-27" data-name="Path" d="M.106,3.326C-1.088-.037,8.128,2.9,10.8,1.427c4.039-2.308,5.478-1.477,4.515.1s-1.551,2.11-6.066,2.11S.8,5.309.106,3.326Z" transform="translate(16.168)" fill="#010101"/>
          <path id="Path-28" data-name="Path" d="M.571,3.542A4.709,4.709,0,0,0,3.747,5.2C5.386,5.342,5.894,3.8,5.177,2.411,4.545,1.145,2.91-.414,1.366.1A2.1,2.1,0,0,0,.571,3.542Z" transform="translate(16.803 13.139)" fill="#ffb573"/>
          <path id="Path-29" data-name="Path" d="M17.008,0s-.489,42.918-1.686,57.438c-1.264,15.9-4.446,48.222-4.446,48.222H1.785s-.19-29.6.706-45.15C3.512,42.8,0,2.291,0,2.291Z" transform="translate(19.528 72.587)" fill="#52bad5"/>
          <path id="Path-30" data-name="Path" d="M17.008,0s-.489,42.918-1.686,57.438c-1.264,15.9-4.446,48.222-4.446,48.222H1.785s-.19-29.6.706-45.15C3.512,42.8,0,2.291,0,2.291Z" transform="translate(19.528 72.587)" fill="#2c9ab7" opacity="0.3"/>
          <path id="Path-31" data-name="Path" d="M10.988,3.414H.268L0,0H11.585l-.6,3.414Z" transform="translate(20.518 175.03)" fill="#263238"/>
          <path id="Path-32" data-name="Path" d="M.011.789c.051.395.306.686.567.633S1,1.033.95.641.641-.053.386.008A.655.655,0,0,0,.011.789Z" transform="translate(26.713 11.321)" fill="#263238"/>
          <path id="Path-33" data-name="Path" d="M.009.8c.051.4.306.694.567.633S1,1.041.949.641.645-.051.384.008-.041.4.009.8Z" transform="translate(31.204 10.701)" fill="#263238"/>
          <path id="Path-34" data-name="Path" d="M0,0A14.4,14.4,0,0,0,2.356,3.18a2.3,2.3,0,0,1-1.848.633Z" transform="translate(29.81 11.892)" fill="#ed893e"/>
          <path id="Path-35" data-name="Path" d="M2.446,1.183a4.287,4.287,0,0,0,.52-.038.116.116,0,0,0,.1-.127h0A.114.114,0,0,0,2.939.924h0A3.173,3.173,0,0,1,.2.034a.12.12,0,0,0-.166,0A.116.116,0,0,0,.033.2h0a3.283,3.283,0,0,0,2.413.987Z" transform="translate(26.342 15.753)" fill="#263238"/>
          <path id="Path-36" data-name="Path" d="M.228,1.566a.23.23,0,0,0,.211-.12A1.9,1.9,0,0,1,1.83.46.238.238,0,0,0,2.053.211h0A.249.249,0,0,0,1.8,0,2.358,2.358,0,0,0,.032,1.22a.236.236,0,0,0,.084.323h0A.28.28,0,0,0,.228,1.566Z" transform="translate(24.915 9.278)" fill="#263238"/>
          <path id="Path-37" data-name="Path" d="M1.872,1.456A.211.211,0,0,0,2,1.418a.241.241,0,0,0,.072-.329A2.351,2.351,0,0,0,.214,0a.236.236,0,0,0,0,.47,1.856,1.856,0,0,1,1.462.878A.23.23,0,0,0,1.872,1.456Z" transform="translate(31.076 8.236)" fill="#263238"/>
          <path id="Shape-3" data-name="Shape" d="M1.395,1.276a5.9,5.9,0,0,1-1.3-.19A.116.116,0,0,1,0,.991a.119.119,0,0,1,.05-.12C.236.755,1.837-.23,2.39.05A.382.382,0,0,1,2.6.388a.734.734,0,0,1-.247.633,1.493,1.493,0,0,1-.841.26Q1.454,1.281,1.395,1.276Z" transform="translate(28.626 184.001)" fill="#52bad5"/>
          <path id="Shape-4" data-name="Shape" d="M0,2.125A3.5,3.5,0,0,1,.7.154.632.632,0,0,1,1.2.006a.383.383,0,0,1,.375.306c.1.526-.889,1.62-1.4,1.9H.117a.122.122,0,0,1-.064.021A.11.11,0,0,1,0,2.125Z" transform="translate(28.634 182.885)" fill="#52bad5"/>
          <path id="Path-38" data-name="Path" d="M16.245,4.515,14.981,6.372c-.421.633-.843,1.266-1.264,1.939-.813,1.3-1.631,2.6-2.387,3.931a63.1,63.1,0,0,0-4.046,8.045L6.9,21.3l-.164.445a.258.258,0,0,0,0-.057c-.051-.038-.072.287.082.726a12.415,12.415,0,0,0,1.987,3.18,42.822,42.822,0,0,0,3.017,3.319c.546.54,1.085,1.093,1.652,1.629l1.686,1.57-2.031,3.135a37.611,37.611,0,0,1-8.517-5.621A16.41,16.41,0,0,1,.937,25.1,7.724,7.724,0,0,1,0,21.176,6.479,6.479,0,0,1,.187,19.91l.057-.23.044-.158L.377,19.2l.362-1.266a56.325,56.325,0,0,1,4.046-9.4c.8-1.477,1.633-2.926,2.541-4.338.445-.707.9-1.405,1.365-2.11S9.624.73,10.166,0Z" transform="translate(0 35.353)" fill="#ffb573"/>
          <path id="Path-39" data-name="Path" d="M9.482.5C5.036,2.087,0,14.284,0,14.284l10.98,5.089A31.79,31.79,0,0,0,15.114,8.91C16.4,2.33,14.912-1.411,9.482.5Z" transform="translate(2.73 31.701)" fill="#006799"/>
          <path id="Path-40" data-name="Path" d="M4.743,1.068,6.008,4.414.529,5.182S-.988,1.049,1.115,0H2.9A2.271,2.271,0,0,1,4.743,1.068Z" transform="translate(11.057 66.863)" fill="#ffb573"/>
          <path id="Path-41" data-name="Path" d="M4.884,3.884.693,4.515,0,.768,5.47,0,4.884,3.884Z" transform="translate(11.563 71.277)" fill="#ffb573"/>
        </g>
        <g id="Group_11" data-name="Group 11" transform="translate(166.097)">
          <path id="Path-42" data-name="Path" d="M26.519,0a26.531,26.531,0,0,0,0,53.061h0V0h0" fill="#006799"/>
          <path id="Path-43" data-name="Path" d="M26.515.006H0V26.764H0a26.511,26.511,0,0,0,18.75-7.772A26.534,26.534,0,0,0,26.515.234V0" transform="translate(26.519 26.29)" fill="#ec5b63"/>
          <path id="Shape-5" data-name="Shape" d="M.706,13.877a2.435,2.435,0,1,1,1.731.722A2.439,2.439,0,0,1,.706,13.877Zm9.652-.024a2.431,2.431,0,1,1,1.729.721A2.436,2.436,0,0,1,10.358,13.853ZM.706,4.173a2.432,2.432,0,1,1,1.729.721A2.436,2.436,0,0,1,.706,4.173Zm9.717.016a2.421,2.421,0,0,1-.632-2.435,2.42,2.42,0,1,1,3.083,2.994,2.419,2.419,0,0,1-2.452-.56Z" transform="translate(33.587 4.3)" fill="#52bad5" opacity="0.6"/>
        </g>
      </g>
      <g id="Group_4" data-name="Group 4" transform="translate(59.131 127)">
        <g id="Group_3" data-name="Group 3">
          <g id="Group_2" data-name="Group 2">
            <g id="Group_2_Copy" data-name="Group 2 Copy">
              <g id="Group">
                <path id="Shape-6" data-name="Shape" d="M0,16.5A16.5,16.5,0,1,1,16.5,33,16.507,16.507,0,0,1,0,16.5" fill="#52bad5"/>
                <path id="Shape-7" data-name="Shape" d="M2.79,23.76H.416A.405.405,0,0,1,0,23.347V.413A.405.405,0,0,1,.416,0H2.79a.405.405,0,0,1,.416.413V1.651a.446.446,0,0,0,.3.413l11.16,3.891a.378.378,0,0,1,.231.17.233.233,0,0,1,.007.184V8.961a.446.446,0,0,1-.3.413l-7.3,2.24a.409.409,0,0,0,0,.767l7.361,2.653a.444.444,0,0,1,.3.412v2.595a.444.444,0,0,1-.3.412L3.5,21.814a.446.446,0,0,0-.3.413v1.12A.405.405,0,0,1,2.79,23.76Zm.645-9.566a.247.247,0,0,0-.229.251v3.773c0,.15.084.251.208.251a.283.283,0,0,0,.089-.016l6.708-2.064L3.5,14.209A.15.15,0,0,0,3.435,14.194Zm0-8.844a.25.25,0,0,0-.23.251V9.374c0,.15.084.251.209.251A.284.284,0,0,0,3.5,9.61l6.708-2.064L3.5,5.365A.15.15,0,0,0,3.436,5.35Z" transform="translate(10.56 4.4)" fill="#fff"/>
              </g>
            </g>
          </g>
        </g>
        <g id="Group_3-2" data-name="Group 3" transform="translate(10.607 4.714)">
          <g id="Group_2-2" data-name="Group 2">
            <g id="Group_2_Copy-2" data-name="Group 2 Copy">
              <g id="Group-2" data-name="Group">
                <path id="Shape-8" data-name="Shape" d="M2.858,23.571H.426A.408.408,0,0,1,0,23.162V.41A.409.409,0,0,1,.426,0H2.858a.409.409,0,0,1,.426.41V1.638a.443.443,0,0,0,.3.41l11.43,3.86a.381.381,0,0,1,.237.17.226.226,0,0,1,.006.181V8.89a.443.443,0,0,1-.3.41L7.478,11.523a.4.4,0,0,0,0,.76l7.539,2.632a.443.443,0,0,1,.3.41V17.9a.442.442,0,0,1-.3.409L3.587,21.641a.443.443,0,0,0-.3.41v1.111A.408.408,0,0,1,2.858,23.571Zm.661-9.49a.249.249,0,0,0-.235.249v3.744a.22.22,0,0,0,.213.248.3.3,0,0,0,.091-.015l6.87-2.047L3.587,14.1A.157.157,0,0,0,3.518,14.081Zm0-8.773a.249.249,0,0,0-.235.249V9.3a.221.221,0,0,0,.213.249.3.3,0,0,0,.091-.015l6.87-2.047L3.587,5.323A.157.157,0,0,0,3.518,5.307Z" fill="#fff"/>
              </g>
            </g>
          </g>
        </g>
      </g>
    </g>
    <g id="Artboard_13_copy" data-name="Artboard 13 copy" transform="translate(1416 275)">
      <g id="Group_13" data-name="Group 13">
        <path id="Path-44" data-name="Path" d="M31.593,0A31.591,31.591,0,0,0,0,31.589v86.425H63.186V31.589A31.593,31.593,0,0,0,31.593,0" transform="translate(205.814 78.987)" fill="#f5b9ba"/>
        <path id="Shape-9" data-name="Shape" d="M0,55.318a1.538,1.538,0,1,1,1.54,1.535A1.537,1.537,0,0,1,0,55.318Zm51.252,0a1.538,1.538,0,1,1,1.542,1.532h0A1.538,1.538,0,0,1,51.252,55.319Zm-10.162,0a1.538,1.538,0,1,1,1.541,1.532h0A1.538,1.538,0,0,1,41.09,55.319Zm-10.163,0a1.538,1.538,0,1,1,1.542,1.532h0A1.538,1.538,0,0,1,30.928,55.319Zm-10.6,0a1.538,1.538,0,1,1,1.541,1.532h0A1.538,1.538,0,0,1,20.325,55.319Zm-10.163,0A1.538,1.538,0,1,1,11.7,56.851h0A1.538,1.538,0,0,1,10.162,55.319Zm41.09-10.753A1.538,1.538,0,1,1,52.795,46.1h0A1.539,1.539,0,0,1,51.252,44.566Zm-10.162,0A1.538,1.538,0,1,1,42.633,46.1h-.005A1.537,1.537,0,0,1,41.09,44.566Zm-10.163,0A1.538,1.538,0,1,1,32.47,46.1h0A1.539,1.539,0,0,1,30.928,44.566Zm-10.6,0A1.538,1.538,0,1,1,21.867,46.1h-.005A1.537,1.537,0,0,1,20.325,44.566Zm-10.163,0A1.538,1.538,0,1,1,11.705,46.1H11.7A1.539,1.539,0,0,1,10.162,44.566ZM0,44.564A1.538,1.538,0,1,1,1.542,46.1h0A1.538,1.538,0,0,1,0,44.564ZM51.258,33.809A1.535,1.535,0,1,1,52.8,35.338h0A1.535,1.535,0,0,1,51.258,33.809Zm-10.163,0a1.535,1.535,0,1,1,1.54,1.528h0A1.536,1.536,0,0,1,41.095,33.809Zm-10.162,0a1.535,1.535,0,1,1,1.539,1.528h0A1.536,1.536,0,0,1,30.933,33.809Zm-10.6,0a1.535,1.535,0,1,1,1.54,1.528h0A1.536,1.536,0,0,1,20.329,33.809Zm-10.162,0a1.535,1.535,0,1,1,1.539,1.528h0A1.536,1.536,0,0,1,10.167,33.809ZM0,33.809a1.536,1.536,0,1,1,1.539,1.529h0A1.536,1.536,0,0,1,0,33.809ZM51.258,23.055A1.535,1.535,0,1,1,52.8,24.583h0A1.536,1.536,0,0,1,51.258,23.055Zm-10.163,0a1.535,1.535,0,1,1,1.54,1.528h0A1.536,1.536,0,0,1,41.095,23.055Zm-10.162,0a1.535,1.535,0,1,1,1.539,1.528h0A1.536,1.536,0,0,1,30.933,23.055Zm-10.6,0a1.535,1.535,0,1,1,1.54,1.528h0A1.536,1.536,0,0,1,20.329,23.055Zm-10.162,0a1.535,1.535,0,1,1,1.539,1.528h0A1.536,1.536,0,0,1,10.167,23.055ZM0,23.054a1.536,1.536,0,1,1,1.539,1.53h0A1.536,1.536,0,0,1,0,23.054ZM51.262,12.3A1.535,1.535,0,1,1,52.8,13.831h0A1.536,1.536,0,0,1,51.262,12.3ZM41.1,12.3a1.536,1.536,0,1,1,1.54,1.528h0A1.536,1.536,0,0,1,41.1,12.3Zm-10.162,0a1.535,1.535,0,1,1,1.54,1.528h0A1.536,1.536,0,0,1,30.938,12.3Zm-10.6,0a1.536,1.536,0,1,1,1.54,1.528h0A1.536,1.536,0,0,1,20.334,12.3Zm-10.166,0a1.535,1.535,0,1,1,1.539,1.528h0A1.536,1.536,0,0,1,10.167,12.3ZM0,12.3a1.536,1.536,0,1,1,1.539,1.53h0A1.536,1.536,0,0,1,0,12.3ZM51.252,1.544a1.538,1.538,0,1,1,1.542,1.533h0A1.539,1.539,0,0,1,51.252,1.544Zm-10.162,0a1.538,1.538,0,1,1,1.541,1.533h0A1.539,1.539,0,0,1,41.09,1.544Zm-10.163,0a1.538,1.538,0,1,1,1.542,1.533h0A1.539,1.539,0,0,1,30.928,1.544Zm-10.6,0a1.538,1.538,0,1,1,1.541,1.533h0A1.539,1.539,0,0,1,20.325,1.544Zm-10.163,0A1.538,1.538,0,1,1,11.7,3.077h0A1.539,1.539,0,0,1,10.162,1.544ZM0,1.544A1.538,1.538,0,1,1,1.54,3.077,1.538,1.538,0,0,1,0,1.544Z" transform="translate(0 44.042)" fill="#263238"/>
        <g id="Group_14" data-name="Group 14" transform="translate(211.178 15.686)">
          <path id="Path-45" data-name="Path" d="M0,0V51.756H0A26.035,26.035,0,0,0,22.707,38.881a25.766,25.766,0,0,0,0-26A26.035,26.035,0,0,0,0,0" transform="translate(25.99)" fill="#006799"/>
          <path id="Path-46" data-name="Path" d="M25.99,0H0A26.021,26.021,0,0,0,7.616,18.388,25.965,25.965,0,0,0,25.99,26h0V0" transform="translate(0 25.998)" fill="#54b8d3"/>
          <path id="Path-47" data-name="Path" d="M4.769,0A4.77,4.77,0,1,0,8.144,1.4,4.77,4.77,0,0,0,4.769,0" transform="translate(9.776 9.302)" fill="#ec5b63"/>
        </g>
        <g id="freepik--Chart--inject-80" transform="translate(27.149 28.584)">
          <rect id="Rectangle" width="28.133" height="125.214" transform="translate(9.981 41.389)" fill="#52bad5"/>
          <rect id="Rectangle-2" data-name="Rectangle" width="28.133" height="125.214" transform="translate(9.981 41.389)" fill="#fafafa" opacity="0.7"/>
          <rect id="Rectangle-3" data-name="Rectangle" width="28.133" height="166.596" transform="translate(53.022)" fill="#52bad5"/>
          <rect id="Rectangle-4" data-name="Rectangle" width="28.133" height="166.596" transform="translate(53.022)" opacity="0.1"/>
          <rect id="Rectangle-5" data-name="Rectangle" width="28.133" height="125.214" transform="translate(96.065 41.389)" fill="#52bad5"/>
          <rect id="Rectangle-6" data-name="Rectangle" width="28.133" height="125.214" transform="translate(96.065 41.389)" opacity="0.4"/>
          <rect id="Rectangle-7" data-name="Rectangle" width="28.133" height="125.214" transform="translate(0 41.389)" fill="#52bad5"/>
          <rect id="Rectangle-8" data-name="Rectangle" width="28.133" height="125.214" transform="translate(0 41.389)" fill="#fafafa" opacity="0.8"/>
          <rect id="Rectangle-9" data-name="Rectangle" width="28.133" height="166.596" transform="translate(43.045)" fill="#6dc5dc"/>
          <path id="Rectangle-10" data-name="Rectangle" d="M28.133.119h0Z" transform="translate(43.045 166.476)" fill="#fafafa" opacity="0.2"/>
          <rect id="Rectangle-11" data-name="Rectangle" width="28.133" height="125.214" transform="translate(86.084 41.389)" fill="#52bad5"/>
          <rect id="Rectangle-12" data-name="Rectangle" width="28.133" height="125.214" transform="translate(86.084 41.389)" opacity="0.2"/>
        </g>
        <g id="freepik--Character--inject-80" transform="translate(121.489)">
          <path id="Shape-10" data-name="Shape" d="M57.345,114.834h-8.3v-.587a57.416,57.416,0,0,1,0-113.631V0h8.288a57.455,57.455,0,0,1,40.6,16.82l.012-.026a57.423,57.423,0,0,1-40.57,98.04Z" transform="translate(8.3 80.322)" fill="#52bad5"/>
          <path id="Shape-11" data-name="Shape" d="M57.345,114.834h-8.3v-.587a57.416,57.416,0,0,1,0-113.631V0h8.288a57.455,57.455,0,0,1,40.6,16.82l.012-.026a57.423,57.423,0,0,1-40.57,98.04Z" transform="translate(8.3 80.322)" opacity="0.3"/>
          <path id="Path-48" data-name="Path" d="M92.162,0H107.14A57.423,57.423,0,0,1,49.788,57.481,57.392,57.392,0,0,1,0,28.722l12.978-7.494A42.423,42.423,0,0,0,60.717,41.022,42.439,42.439,0,0,0,92.162,0Z" transform="translate(7.606 137.732)" fill="#52bad5"/>
          <path id="Path-49" data-name="Path" d="M92.162,0H107.14A57.423,57.423,0,0,1,49.788,57.481,57.392,57.392,0,0,1,0,28.722l12.978-7.494A42.423,42.423,0,0,0,60.717,41.022,42.439,42.439,0,0,0,92.162,0Z" transform="translate(7.606 137.732)" fill="#46afcb"/>
          <path id="Path-50" data-name="Path" d="M0,0A57.444,57.444,0,0,1,57.4,57.417H42.423A42.449,42.449,0,0,0,0,14.974Z" transform="translate(57.345 80.322)" fill="#f15863"/>
          <path id="Path-51" data-name="Path" d="M57.345,0V14.981A42.436,42.436,0,0,0,20.6,78.637L7.606,86.119A57.4,57.4,0,0,1,57.345,0Z" transform="translate(0 80.322)" fill="#52bad5"/>
          <path id="Path-52" data-name="Path" d="M57.345,0V14.981A42.436,42.436,0,0,0,20.6,78.637L7.606,86.119A57.4,57.4,0,0,1,57.345,0Z" transform="translate(0 80.322)" fill="#fafafa" opacity="0.8"/>
          <path id="Path-53" data-name="Path" d="M11.545,10.249l-4.6,2.7L0,2.7,4.6,0l6.941,10.249Z" transform="translate(31.725 110.16)" fill="#e4897b"/>
          <path id="Path-54" data-name="Path" d="M5.07,3.29,10.117.072a.422.422,0,0,1,.558.076L13.8,3.781a.861.861,0,0,1-.141,1.209.463.463,0,0,1-.069.05C11.829,6.131,10.892,6.57,8.672,7.97c-1.371.868-4.1,2.812-5.992,4.019S-.5,11.4.184,10.717C3.224,7.712,3.944,5.785,4.5,4.039A1.4,1.4,0,0,1,5.07,3.29Z" transform="translate(31.037 116.902)" fill="#010101"/>
          <path id="Shape-12" data-name="Shape" d="M.546,1.629a.682.682,0,0,1-.5-.379.372.372,0,0,1,0-.365C.4.248,2.754.024,3.024,0a.105.105,0,0,1,.088.153C2.507.715,1.434,1.629.685,1.629Z" transform="translate(33.109 120.817)" fill="#52bad5"/>
          <path id="Shape-13" data-name="Shape" d="M2.283,1.462C1.507,1.462.236,1.183.031.708-.022.584-.034.4.223.2A.876.876,0,0,1,.9.009C1.752.122,2.617,1.252,2.66,1.3a.082.082,0,0,1,0,.088A.08.08,0,0,1,2.6,1.44a1.655,1.655,0,0,1-.27.022Z" transform="translate(33.559 119.548)" fill="#52bad5"/>
          <path id="Path-55" data-name="Path" d="M24.769,1.1c-.088.477-.157.792-.238,1.173l-.277,1.083c-.193.716-.4,1.431-.584,2.128-.446,1.4-.937,2.772-1.459,4.1s-1.094,2.7-1.686,4.014c-.293.663-.587,1.312-.928,1.963l-.238.491-.136.27c-.064.136-.134.27-.21.4a6.592,6.592,0,0,1-1.025,1.326,8.982,8.982,0,0,1-2.344,1.646,15.019,15.019,0,0,1-2.341.913,25.535,25.535,0,0,1-4.516.88,42.591,42.591,0,0,1-8.786,0L.048,18.73c1.335-.145,2.728-.3,4.1-.527s2.69-.458,3.989-.761a24.411,24.411,0,0,0,3.691-1.173,6.781,6.781,0,0,0,2.6-1.641,1.4,1.4,0,0,0,.238-.367l.3-.768c.26-.639.5-1.283.739-1.927.491-1.283.937-2.585,1.388-3.873s.861-2.6,1.237-3.9c.2-.649.386-1.293.584-1.939L19.163.89,19.38,0Z" transform="translate(31.176 39.666)" fill="#e4897b"/>
          <path id="Path-56" data-name="Path" d="M3.736.369C1.54.953,0,9.971,0,9.971l6.056,4.1s5.816-9.123,4.1-11.537C8.41.025,6.941-.452,3.736.369Z" transform="translate(48.489 33.549)" fill="#52bad5"/>
          <path id="Path-57" data-name="Path" d="M3.736.369C1.54.953,0,9.971,0,9.971l6.056,4.1s5.816-9.123,4.1-11.537C8.41.025,6.941-.452,3.736.369Z" transform="translate(48.489 33.549)" fill="#fafafa" opacity="0.6"/>
          <path id="Path-58" data-name="Path" d="M1.125,0,5.811,1.09l.451,4.6a52.919,52.919,0,0,1-2.635,4.754L0,7.964C.129,5.824.527,1.429,1.125,0Z" transform="translate(50.902 37.204)" fill="#52bad5"/>
          <path id="Path-59" data-name="Path" d="M1.125,0,5.811,1.09l.451,4.6a52.919,52.919,0,0,1-2.635,4.754L0,7.964C.129,5.824.527,1.429,1.125,0Z" transform="translate(50.902 37.204)" fill="#fafafa" opacity="0.3"/>
          <path id="Path-60" data-name="Path" d="M4.275,3.857.5,0,0,5.4s2.835,1.908,4.8.885Z" transform="translate(27.712 54.535)" fill="#e4897b"/>
          <path id="Path-61" data-name="Path" d="M.176,0,0,4.546,4.125,5.977l.491-5.4L.176,0Z" transform="translate(23.589 53.984)" fill="#e4897b"/>
          <path id="Path-62" data-name="Path" d="M3.784,13.734,0,9.977,7.468,0l3.784,3.749L3.784,13.734Z" transform="translate(18.823 108.133)" fill="#e4897b"/>
          <path id="Path-63" data-name="Path" d="M10.6.371l5.46,2.471a.413.413,0,0,1,.238.506l-1.33,4.6A.861.861,0,0,1,13.88,8.5L13.8,8.462c-1.886-.9-2.754-1.431-5.155-2.507C7.165,5.287,3.312,3.722,1.273,2.8S.038-.187.968.014C5.15.922,7.883.8,9.662.3A1.392,1.392,0,0,1,10.6.371Z" transform="translate(10.343 115.098)" fill="#010101"/>
          <path id="Path-64" data-name="Path" d="M0,2.688,3.579,7.973l4.6-2.7L4.6,0,0,2.688Z" transform="translate(31.732 110.167)" fill="#ce6f64"/>
          <path id="Path-65" data-name="Path" d="M7.637,3.749,3.846,0,0,5.145,3.789,8.9,7.637,3.749Z" transform="translate(22.437 108.133)" fill="#ce6f64"/>
          <path id="Path-66" data-name="Path" d="M24.855,33.736H3.183C-1.907,2.444.635,1.552.635,1.552S4.121.836,7.769.38C8.4.3,9.023.235,9.643.175a69.067,69.067,0,0,1,9.836,0C20.1.2,20.721.252,21.329.3a66.217,66.217,0,0,1,7.339,1.083C24.481,19.488,24.531,24.919,24.855,33.736Z" transform="translate(51.567 32.371)" fill="#52bad5"/>
          <path id="Path-67" data-name="Path" d="M24.855,33.736H3.183C-1.907,2.444.635,1.552.635,1.552S4.121.836,7.769.38C8.4.3,9.023.235,9.643.175a69.067,69.067,0,0,1,9.836,0C20.1.2,20.721.252,21.329.3a66.217,66.217,0,0,1,7.339,1.083C24.481,19.488,24.531,24.919,24.855,33.736Z" transform="translate(51.567 32.371)" fill="#fafafa" opacity="0.6"/>
          <path id="Path-68" data-name="Path" d="M14.091.287l-.238.551A34.559,34.559,0,0,1,4.866,12.966L3.436,14.14,2.341,12.656C-.944,8.2.038,2.414.524.382,1.151.306,1.778.234,2.4.177a68.371,68.371,0,0,1,9.836,0C12.861.189,13.481.227,14.091.287Z" transform="translate(58.828 32.393)" fill="#52bad5"/>
          <path id="Path-69" data-name="Path" d="M14.091.287l-.238.551A34.559,34.559,0,0,1,4.866,12.966L3.436,14.14,2.341,12.656C-.944,8.2.038,2.414.524.382,1.151.306,1.778.234,2.4.177a68.371,68.371,0,0,1,9.836,0C12.861.189,13.481.227,14.091.287Z" transform="translate(58.828 32.393)" fill="#fafafa" opacity="0.1"/>
          <path id="Path-70" data-name="Path" d="M10.738.346C6.005-1.77,3.158,6.275,3.48,11.969S4.651,24.648,2.157,23.477s-.727-2.929-.727-2.929-3.515,2.783.477,4.312,11.083,1.381,15.229-.587C19.52,20.7,18.49,7.313,18.49,7.313Z" transform="translate(49.437 5.232)" fill="#010101"/>
          <path id="Path-71" data-name="Path" d="M9.5,0c-.613,3.163-1.235,8.963.98,11.072A33.573,33.573,0,0,1,2,22.52C-1.48,17.8.64,11.072.64,11.072c3.515-.842,3.438-3.461,2.823-5.917Z" transform="translate(60.594 21.479)" fill="#e4897b"/>
          <path id="Path-72" data-name="Path" d="M3.577,0,0,3.046A9.755,9.755,0,0,1,.305,4.8c1.347-.193,3.2-1.67,3.338-3.1A4.714,4.714,0,0,0,3.577,0Z" transform="translate(64.054 23.583)" fill="#ce6f64"/>
          <path id="Path-73" data-name="Path" d="M14.644,6.473c.584,5.273.978,7.47-1.173,10.6C10.238,21.8,3.65,21.4,1.482,16.433c-1.95-4.47-2.623-12.3,2.1-15.3A7.22,7.22,0,0,1,14.644,6.473Z" transform="translate(55.822 6.668)" fill="#e4897b"/>
          <path id="Path-74" data-name="Path" d="M1.307,5.564c1.891,2.221,7.613,8.684,11.61,7.845,4.1-.861,4.239-8.5-.715-11.654S-3.772-.394,1.307,5.564Z" transform="translate(58.68 3.957)" fill="#010101"/>
          <path id="Path-75" data-name="Path" d="M3.892.252C.127-1-.206,2.682.077,4.974L4.7,8.378A14.02,14.02,0,0,0,8.945,6.99C10.779,5.952,7.66,1.5,3.892.252Z" transform="translate(67.942)" fill="#010101"/>
          <path id="Path-76" data-name="Path" d="M3.591,1.977A4.055,4.055,0,0,1,2.225,4.6C1.2,5.473.17,4.7.024,3.429-.1,2.292.263.5,1.517.09A1.624,1.624,0,0,1,3.591,1.977Z" transform="translate(69.095 15.682)" fill="#e4897b"/>
          <path id="Path-77" data-name="Path" d="M12.223,22.995c-.16,4.77,1.295,10.547,2.887,15.374.339,1.033.684,2.023,1.025,2.931,1.452,3.959,2.752,6.719,2.752,6.719l-6.378,3.642s-.866-1.09-2.146-3.005c-.587-.844-1.207-1.858-1.891-3.005C4.9,39.674.224,29.909,0,19.513-.348,3.244,33.356,0,33.356,0H49.293L44.829,12.684S12.509,14.342,12.223,22.995Z" transform="translate(21.407 66.107)" fill="#52bad5"/>
          <path id="Path-78" data-name="Path" d="M12.223,22.995c-.16,4.77,1.295,10.547,2.887,15.374.339,1.033.684,2.023,1.025,2.931,1.452,3.959,2.752,6.719,2.752,6.719l-6.378,3.642s-.866-1.09-2.146-3.005c-.587-.844-1.207-1.858-1.891-3.005C4.9,39.674.224,29.909,0,19.513-.348,3.244,33.356,0,33.356,0H49.293L44.829,12.684S12.509,14.342,12.223,22.995Z" transform="translate(21.407 66.107)" fill="#006799" opacity="0.6"/>
          <path id="Path-79" data-name="Path" d="M7.649,2.941a34.826,34.826,0,0,1-5.758,7.318C1.3,9.414.684,8.4,0,7.253L6.624,0C6.951,1.014,7.308,2.02,7.649,2.941Z" transform="translate(29.893 104.496)" fill="#263238"/>
          <path id="Path-80" data-name="Path" d="M9.471,0,8.794,6.917C4.106,8.393.449,10.433.1,13.163-.7,7.029,3.563,3.432,9.471,0Z" transform="translate(33.558 75.629)" fill="#263238"/>
          <path id="Path-81" data-name="Path" d="M37.409,0S17.459,8.145,14.421,17.144C10.541,28.629,0,44.857,0,44.857l4.428,5.765s12.16-11.8,20.465-25.311C35.284,8.322,60.318,26.265,53.37,0Z" transform="translate(23.081 66.1)" fill="#52bad5"/>
          <path id="Path-82" data-name="Path" d="M37.409,0S17.459,8.145,14.421,17.144C10.541,28.629,0,44.857,0,44.857l4.428,5.765s12.16-11.8,20.465-25.311C35.284,8.322,60.318,26.265,53.37,0Z" transform="translate(23.081 66.1)" fill="#006799" opacity="0.6"/>
          <path id="Path-83" data-name="Path" d="M1.012.686c.076.422-.088.809-.362.856S.063,1.289.011.862.1.058.376.006.936.263,1.012.686Z" transform="translate(61.826 15.32)" fill="#263238"/>
          <path id="Path-84" data-name="Path" d="M1.012.685c.076.422-.086.809-.362.856S.063,1.289.011.867.1.058.376.006.936.275,1.012.685Z" transform="translate(57.041 16.176)" fill="#263238"/>
          <path id="Path-85" data-name="Path" d="M1.073.11,0,0S.668.7,1.073.11Z" transform="translate(56.472 16.077)" fill="#263238"/>
          <path id="Path-86" data-name="Path" d="M1.025,0A11.52,11.52,0,0,1,0,2.972a1.866,1.866,0,0,0,1.564,0Z" transform="translate(58.423 17.355)" fill="#de5753"/>
          <path id="Path-87" data-name="Path" d="M.082,2.1a.086.086,0,0,1-.076-.052.081.081,0,0,1,.048-.1A3.577,3.577,0,0,0,1.81.052.074.074,0,0,1,1.906,0h0a.086.086,0,0,1,.052.1A3.711,3.711,0,0,1,.091,2.1Z" transform="translate(62.342 19.347)" fill="#263238"/>
          <path id="Path-88" data-name="Path" d="M2.13.942A.153.153,0,0,1,2.018.9,2.115,2.115,0,0,0,.2.358a.16.16,0,0,1-.2-.1h0a.162.162,0,0,1,.112-.2A2.412,2.412,0,0,1,2.264.639a.165.165,0,0,1,0,.239A.153.153,0,0,1,2.13.942Z" transform="translate(61.242 13.165)" fill="#263238"/>
          <path id="Path-89" data-name="Path" d="M.159,1.65H.1a.174.174,0,0,1-.088-.217A2.423,2.423,0,0,1,1.7,0a.16.16,0,0,1,.184.134.16.16,0,0,1-.131.184h0A2.108,2.108,0,0,0,.321,1.574.172.172,0,0,1,.159,1.65Z" transform="translate(55.284 13.32)" fill="#263238"/>
          <path id="Shape-14" data-name="Shape" d="M2.194,1.927C1.506,1.791.309,1.476.049.866A.678.678,0,0,1,.137.205.382.382,0,0,1,.475,0c.663,0,1.7,1.606,1.81,1.791a.078.078,0,0,1,0,.1.1.1,0,0,1-.081.041Z" transform="translate(18.085 113.981)" fill="#52bad5"/>
          <path id="Shape-15" data-name="Shape" d="M.592,2.587a.091.091,0,0,1-.069-.035A2.956,2.956,0,0,1,.13.167.4.4,0,0,1,.623.038a.582.582,0,0,1,.391.35C1.327,1.08.7,2.468.676,2.534A.094.094,0,0,1,.6,2.587Z" transform="translate(19.687 113.321)" fill="#52bad5"/>
          <path id="Path-90" data-name="Path" d="M1.073.112,0,0S.668.7,1.073.112Z" transform="translate(61.258 15.221)" fill="#263238"/>
          <path id="Path-91" data-name="Path" d="M22.649.158l.172,1.932c.076.153-.1.305-.353.305H.563C.37,2.4.205,2.3.193,2.179L0,.24C0,.106.16,0,.37,0H22.306a.393.393,0,0,1,.343.157Z" transform="translate(54.1 64.677)" fill="#52bad5"/>
          <path id="Path-92" data-name="Path" d="M22.649.158l.172,1.932c.076.153-.1.305-.353.305H.563C.37,2.4.205,2.3.193,2.179L0,.24C0,.106.16,0,.37,0H22.306a.393.393,0,0,1,.343.157Z" transform="translate(54.1 64.677)" fill="#fafafa" opacity="0.2"/>
          <path id="Path-93" data-name="Path" d="M.5,2.791H1.09c.117,0,.2-.06.2-.136L1.014.136C1.014.064.9,0,.775,0H.2C.081,0-.007.064,0,.136L.275,2.655C.282,2.731.387,2.791.5,2.791Z" transform="translate(73.301 64.495)" fill="#52bad5"/>
          <path id="Path-94" data-name="Path" d="M.5,2.791H1.09c.117,0,.2-.06.2-.136L1.014.136C1.014.064.9,0,.775,0H.2C.081,0-.007.064,0,.136L.275,2.655C.282,2.731.387,2.791.5,2.791Z" transform="translate(73.301 64.495)" opacity="0.6"/>
          <path id="Path-95" data-name="Path" d="M.5,2.791h.584c.119,0,.212-.06.2-.136L1.011.136C1.011.064.9,0,.785,0H.2C.081,0-.007.064,0,.136L.275,2.655C.294,2.731.37,2.791.5,2.791Z" transform="translate(55.804 64.495)" fill="#52bad5"/>
          <path id="Path-96" data-name="Path" d="M.5,2.791h.584c.119,0,.212-.06.2-.136L1.011.136C1.011.064.9,0,.785,0H.2C.081,0-.007.064,0,.136L.275,2.655C.294,2.731.37,2.791.5,2.791Z" transform="translate(55.804 64.495)" opacity="0.6"/>
          <path id="Path-97" data-name="Path" d="M.513,2.791H1.1c.117,0,.205-.06.2-.136L1.023.136C1.023.064.911,0,.785,0H.2C.081,0,0,.064,0,.136L.277,2.655C.3,2.731.415,2.791.513,2.791Z" transform="translate(64.545 64.495)" fill="#52bad5"/>
          <path id="Path-98" data-name="Path" d="M.513,2.791H1.1c.117,0,.205-.06.2-.136L1.023.136C1.023.064.911,0,.785,0H.2C.081,0,0,.064,0,.136L.277,2.655C.3,2.731.415,2.791.513,2.791Z" transform="translate(64.545 64.495)" opacity="0.6"/>
          <path id="Path-99" data-name="Path" d="M.046,0,2.841,2.385c-.587,3.165-1,5.8-1.254,8.145C1.067,8.174-.264,1.829.046,0Z" transform="translate(75.122 42.161)" fill="#52bad5"/>
          <path id="Path-100" data-name="Path" d="M.046,0,2.841,2.385c-.587,3.165-1,5.8-1.254,8.145C1.067,8.174-.264,1.829.046,0Z" transform="translate(75.122 42.161)" fill="#fafafa" opacity="0.3"/>
          <path id="Path-101" data-name="Path" d="M0,0H38l5.506,22.442h-38L0,0Z" transform="translate(15.976 51.136)" fill="#fafafa"/>
          <path id="Path-102" data-name="Path" d="M0,0,23.243,5.419,38.155,1.243,38,0Z" transform="translate(35.227 69.399)" fill="#fafafa"/>
          <path id="Path-103" data-name="Path" d="M0,0H38L43.5,22.442h-38L0,0Z" transform="translate(14.81 51.136)" fill="#52bad5"/>
          <path id="Path-104" data-name="Path" d="M0,0H38L43.5,22.442h-38L0,0Z" transform="translate(14.81 51.136)" fill="#fafafa" opacity="0.2"/>
          <path id="Path-105" data-name="Path" d="M0,0,.153,1.24h38L38,0Z" transform="translate(20.315 73.577)" fill="#52bad5"/>
          <path id="Path-106" data-name="Path" d="M0,0,.153,1.24h38L38,0Z" transform="translate(20.315 73.577)" fill="#fafafa" opacity="0.2"/>
          <path id="Path-107" data-name="Path" d="M15.758,0a94.9,94.9,0,0,1,2.735,9.6c.386,1.629.715,3.275.954,4.985.124.856.224,1.729.277,2.643,0,.458.036.925,0,1.419v.584l-.029.281a5.864,5.864,0,0,1-.238,1.073,7.26,7.26,0,0,1-1.979,2.989,14.054,14.054,0,0,1-2.344,1.758,28.37,28.37,0,0,1-4.75,2.254c-1.6.587-3.209,1.085-4.821,1.524a46.431,46.431,0,0,1-4.9,1.049L0,27.479c1.469-.539,2.988-1.107,4.44-1.758s2.928-1.247,4.292-1.956a27.557,27.557,0,0,0,3.848-2.3,9.55,9.55,0,0,0,1.464-1.293,2.657,2.657,0,0,0,.644-1.069,9.644,9.644,0,0,0-.1-1.481c-.086-.716-.215-1.448-.355-2.2-.3-1.5-.687-3.017-1.073-4.546s-.849-3.06-1.307-4.582-.925-3.072-1.381-4.56Z" transform="translate(66.539 39.718)" fill="#e4897b"/>
          <path id="Path-108" data-name="Path" d="M5.94.12C8.112.776,11.424,9.3,11.424,9.3L3.007,15.313S-.767,8.039.141,5.229C1.09,2.314,3.467-.636,5.94.12Z" transform="translate(74.319 33.645)" fill="#52bad5"/>
          <path id="Path-109" data-name="Path" d="M5.94.12C8.112.776,11.424,9.3,11.424,9.3L3.007,15.313S-.767,8.039.141,5.229C1.09,2.314,3.467-.636,5.94.12Z" transform="translate(74.319 33.645)" fill="#fafafa" opacity="0.6"/>
          <path id="Path-110" data-name="Path" d="M5.031,1.283,0,0,2.408,4.863s3.419.148,4.549-1.758Z" transform="translate(62.617 66.1)" fill="#e4897b"/>
          <path id="Path-111" data-name="Path" d="M0,1.844,2.232,5.8,6.49,4.856,4.082,0,0,1.844Z" transform="translate(58.511 66.107)" fill="#e4897b"/>
        </g>
      </g>
    </g>
  </g>
</svg>
