<svg xmlns="http://www.w3.org/2000/svg" width="16.34" height="15.48" viewBox="0 0 16.34 15.48">
  <g id="Group_469" data-name="Group 469" transform="translate(-352 -298)">
    <g id="check" transform="translate(352 298)" fill="rgba(255,255,255,0)">
      <path d="M 14.34000015258789 14.47999954223633 L 2 14.47999954223633 C 1.448600053787231 14.47999954223633 1.00000011920929 14.03139972686768 1.00000011920929 13.47999954223633 L 1.00000011920929 1.999999761581421 C 1.00000011920929 1.448599815368652 1.448600053787231 0.9999997615814209 2 0.9999997615814209 L 14.34000015258789 0.9999997615814209 C 14.89140033721924 0.9999997615814209 15.34000015258789 1.448599815368652 15.34000015258789 1.999999761581421 L 15.34000015258789 13.47999954223633 C 15.34000015258789 14.03139972686768 14.89140033721924 14.47999954223633 14.34000015258789 14.47999954223633 Z" stroke="none"/>
      <path d="M 2 2 L 2 13.47999954223633 L 14.34000015258789 13.47999954223633 L 14.34000015258789 2 L 2 2 M 2 0 L 14.34000015258789 0 C 15.44457054138184 0 16.34000015258789 0.8954296112060547 16.34000015258789 2 L 16.34000015258789 13.47999954223633 C 16.34000015258789 14.58456993103027 15.44457054138184 15.47999954223633 14.34000015258789 15.47999954223633 L 2 15.47999954223633 C 0.8954296112060547 15.47999954223633 0 14.58456993103027 0 13.47999954223633 L 0 2 C 0 0.8954296112060547 0.8954296112060547 0 2 0 Z" stroke="none" fill="#000"/>
    </g>
  </g>
</svg>
